<svg xmlns="http://www.w3.org/2000/svg" viewBox="0 0 64 64" role="img" aria-label="Desert Bridge Cruise">
  <defs>
    <linearGradient id="bg" x1="0%" y1="0%" x2="100%" y2="100%">
      <stop offset="0%" stop-color="#F7E8C8" />
      <stop offset="100%" stop-color="#E6C88A" />
    </linearGradient>
  </defs>
  <rect width="64" height="64" rx="16" fill="#3E2F1C" />
  <rect x="4" y="4" width="56" height="56" rx="13" fill="url(#bg)" />
  <path
    d="M18 39c5-2 8-6 10-12 2 6 5 10 10 12-5 1-8 4-10 9-2-5-5-8-10-9Z"
    fill="#8C6341"
    opacity="0.92"
  />
  <path
    d="M20 44c4-1 7-4 8.7-8.8 1.7 4.8 4.7 7.8 8.6 8.8"
    fill="none"
    stroke="#3E2F1C"
    stroke-linecap="round"
    stroke-width="2.3"
  />
  <path
    d="M38 19c-5 2-8 6-10 12-2-6-5-10-10-12 5-1 8-4 10-9 2 5 5 8 10 9Z"
    fill="#3E2F1C"
    opacity="0.92"
  />
  <circle cx="44" cy="22" r="5" fill="#3E2F1C" opacity="0.14" />
</svg>
